HIERARCHY
ROOT Hips
{
	OFFSET 0.000000 0.000000 0.000000 
	CHANNELS 6 Xposition Yposition Zposition Zrotation Yrotation Xrotation
	JOINT LeftUpLeg
	{
		OFFSET 1.363060 -1.794630 0.839290 
		CHANNELS 3 Zrotation Yrotation Xrotation
		JOINT LeftLeg
		{
			OFFSET 2.448110 -6.726130 0.000000 
			CHANNELS 3 Zrotation Yrotation Xrotation
			JOINT LeftFoot
			{
				OFFSET 2.562200 -7.039590 0.000000 
				CHANNELS 3 Zrotation Yrotation Xrotation
				JOINT LeftToeBase
				{
					OFFSET 0.157640 -0.433110 2.322550 
					CHANNELS 3 Zrotation Yrotation Xrotation
					End Site
					{
						OFFSET 0.000000 0.000000 0.000000 
					}
				}
			}
		}
	}
	JOINT RightUpLeg
	{
		OFFSET -1.305520 -1.794630 0.839290 
		CHANNELS 3 Zrotation Yrotation Xrotation
		JOINT RightLeg
		{
			OFFSET -2.542530 -6.985550 0.000000 
			CHANNELS 3 Zrotation Yrotation Xrotation
			JOINT RightFoot
			{
				OFFSET -2.568260 -7.056230 0.000000 
				CHANNELS 3 Zrotation Yrotation Xrotation
				JOINT RightToeBase
				{
					OFFSET -0.164730 -0.452590 2.363150 
					CHANNELS 3 Zrotation Yrotation Xrotation
					End Site
					{
						OFFSET 0.000000 0.000000 0.000000 
					}
				}
			}
		}
	}
	JOINT Spine
	{
		OFFSET 0.028270 2.035590 -0.193380 
		CHANNELS 3 Zrotation Yrotation Xrotation
		JOINT Spine1
		{
			OFFSET 0.056720 2.048850 -0.042750 
			CHANNELS 3 Zrotation Yrotation Xrotation
			JOINT Neck1
			{
				OFFSET -0.054170 1.746240 0.172020 
				CHANNELS 3 Zrotation Yrotation Xrotation
				JOINT Head
				{
					OFFSET 0.104070 1.761360 -0.123970 
					CHANNELS 3 Zrotation Yrotation Xrotation
					End Site
					{
						OFFSET 0.000000 0.000000 0.000000 
					}
				}
			}
			JOINT LeftArm
			{
				OFFSET 3.362410 1.200890 -0.311210 
				CHANNELS 3 Zrotation Yrotation Xrotation
				JOINT LeftForeArm
				{
					OFFSET 4.983000 -0.000000 -0.000000 
					CHANNELS 3 Zrotation Yrotation Xrotation
					JOINT LeftHand
					{
						OFFSET 3.483560 -0.000000 -0.000000 
						CHANNELS 3 Zrotation Yrotation Xrotation
						JOINT LeftHandIndex1
						{
							OFFSET 0.715260 -0.000000 -0.000000 
							CHANNELS 3 Zrotation Yrotation Xrotation
							End Site
							{
								OFFSET 0.000000 0.000000 0.000000 
							}
						}
					}
				}
			}
			JOINT RightArm
			{
				OFFSET -3.136600 1.374050 -0.404650 
				CHANNELS 3 Zrotation Yrotation Xrotation
				JOINT RightForeArm
				{
					OFFSET -5.241900 -0.000000 -0.000000 
					CHANNELS 3 Zrotation Yrotation Xrotation
					JOINT RightHand
					{
						OFFSET -3.444170 -0.000000 -0.000000 
						CHANNELS 3 Zrotation Yrotation Xrotation
						JOINT RightHandIndex1
						{
							OFFSET -0.622530 -0.000000 -0.000000 
							CHANNELS 3 Zrotation Yrotation Xrotation
							End Site
							{
								OFFSET 0.000000 0.000000 0.000000 
							}
						}
					}
				}
			}
		}
	}
}
MOTION
Frames: 13
Frame Time: 0.041667
-14.400473 17.910255 -37.039292 -1.822237 -2.773463 11.172479 -13.936299 -11.093520 -18.760916 2.513311 10.837778 32.080067 1.033354 15.699605 -33.276045 0.405600 4.088500 11.325700 21.966969 8.104914 -18.901821 -3.563371 -11.114981 33.336203 -1.756455 -11.351901 -31.880300 -0.005000 -0.455700 1.252100 1.432071 6.010937 -4.736833 5.989450 2.795543 4.346765 5.027436 -5.409323 8.875523 0.683200 -2.466500 3.857700 -99.849294 6.695375 40.237611 29.258555 -40.890709 -7.887926 -0.511751 1.992105 -4.903048 -7.125000 0.000000 0.000000 91.482288 -7.525121 25.205690 -23.215279 33.672026 -6.530474 0.321942 -0.973895 14.224143 7.125000 0.000000 0.000000 
-14.404585 17.911732 -37.042561 -1.813252 -2.643805 11.262733 -13.899759 -10.839133 -18.999899 2.515547 10.844603 32.087899 1.033743 15.439250 -33.028028 0.385500 3.986900 11.039900 21.988961 7.580348 -19.229416 -3.564107 -11.112933 33.330112 -1.783283 -10.986141 -31.762796 -0.004000 -0.407600 1.119900 1.461567 5.949673 -4.802002 6.082376 2.775153 4.247242 5.007779 -5.352554 8.423538 0.775100 -2.458400 4.112800 -99.897096 6.812495 40.181637 29.295082 -40.926238 -7.905638 -0.511029 1.992080 -4.901336 -7.125000 0.000000 0.000000 91.483508 -7.776453 25.162937 -23.290134 33.738441 -6.566454 0.322768 -0.973177 14.534795 7.125000 0.000000 0.000000 
-14.409541 17.910466 -37.036234 -1.796225 -2.513375 11.168661 -13.898318 -10.595150 -18.993674 2.517701 10.853513 32.100143 1.049810 15.179735 -32.864510 0.357600 3.841600 10.631500 22.039205 7.797580 -18.953029 -3.556160 -11.103055 33.298425 -1.721205 -11.421435 -31.711454 -0.001300 -0.231100 0.634800 1.495713 5.881081 -4.806046 6.187394 2.741254 4.220090 4.939569 -5.348044 8.399927 0.747600 -2.460500 4.070400 -99.943118 6.851101 40.171915 29.243492 -40.884932 -7.878941 -0.514209 1.995027 -4.903646 -7.125000 0.000000 0.000000 91.451773 -7.892872 25.216902 -23.279424 33.714441 -6.557667 0.322738 -0.974136 14.464693 7.125000 0.000000 0.000000 
-14.411439 17.914262 -37.049836 -1.786112 -2.374461 11.372464 -13.840108 -10.432990 -19.365543 2.518341 10.857075 32.100296 1.074765 14.862927 -32.695922 0.355800 3.832200 10.605200 22.025427 8.342453 -19.020309 -3.553084 -11.093538 33.286518 -1.628638 -12.033699 -31.614561 -0.001400 -0.243200 0.668200 1.545089 5.816818 -4.907568 6.321991 2.724467 4.064146 4.887719 -5.336104 8.359624 0.741200 -2.460300 4.020000 -100.069434 6.940080 40.132701 29.251928 -40.904917 -7.883136 -0.504616 1.992150 -4.861617 -7.125000 0.000000 0.000000 91.311806 -8.209519 25.476001 -21.826267 32.032896 -5.859942 0.235435 -0.902991 21.210364 7.125000 0.000000 0.000000 
-14.415867 17.915738 -37.056268 -1.801611 -2.254869 11.458354 -13.772386 -10.169308 -19.615268 2.517926 10.862907 32.100574 1.106684 14.496675 -32.523429 0.347500 3.787600 10.479800 22.069514 8.518487 -19.058360 -3.549898 -11.084394 33.268064 -1.590589 -12.284879 -31.577761 -0.000100 -0.055500 0.152500 1.549892 5.753623 -4.972274 6.322620 2.702275 3.935522 4.892019 -5.311808 8.256339 0.744300 -2.450900 3.946400 -100.053415 7.025805 40.061102 29.299024 -40.936004 -7.903327 -0.513720 1.994370 -4.836198 -7.125000 0.000000 0.000000 91.333100 -8.043337 25.363276 -23.307860 33.719195 -6.565880 0.325921 -0.977888 14.109814 7.125000 0.000000 0.000000 
-14.419452 17.916793 -37.057850 -1.791143 -2.126895 11.479983 -13.749320 -10.058025 -19.709122 2.519790 10.867266 32.106350 1.110897 14.314228 -32.372744 0.335700 3.723200 10.299300 22.097540 8.018831 -19.266190 -3.547091 -11.078647 33.246260 -1.610959 -11.973488 -31.448934 0.000000 0.011300 -0.030900 1.575519 5.688843 -5.020987 6.385212 2.676727 3.834959 4.830828 -5.309618 8.235216 0.719500 -2.453900 3.903400 -100.075909 7.157402 40.015841 29.353371 -40.982422 -7.929917 -0.509407 1.992683 -4.802249 -7.125000 0.000000 0.000000 91.381333 -8.210267 25.310914 -23.309288 33.711516 -6.563807 0.325312 -0.978297 14.274500 7.125000 0.000000 0.000000 
-14.423775 17.918374 -37.063332 -1.800012 -2.004180 11.587798 -13.687054 -9.834459 -19.962238 2.520427 10.873871 32.111550 1.138907 14.002001 -32.234172 0.327800 3.680000 10.178000 22.135872 8.241286 -19.305697 -3.543391 -11.069299 33.227669 -1.554889 -12.316867 -31.372106 -0.000100 0.067600 -0.185700 1.610561 5.622046 -5.080788 6.480705 2.651827 3.744763 4.843980 -5.266272 8.143413 0.740100 -2.435900 3.829400 -100.152634 7.110105 40.031688 29.209510 -40.863206 -7.859898 -0.507378 1.997598 -4.833719 -7.125000 0.000000 0.000000 91.208553 -7.854566 25.487390 -22.977749 33.341564 -6.398632 0.314249 -0.974214 14.131226 7.125000 0.000000 0.000000 
-14.426938 17.919323 -37.065863 -1.806850 -1.863261 11.622813 -13.649337 -9.609643 -20.125330 2.521892 10.880696 32.119643 1.174293 13.667718 -32.115959 0.315900 3.613100 9.990600 22.178492 8.231279 -19.346582 -3.540036 -11.062860 33.211023 -1.512851 -12.499475 -31.254157 -0.000900 0.188600 -0.518200 1.646531 5.552810 -5.135559 6.580198 2.629752 3.618162 4.762012 -5.260306 8.154969 0.711900 -2.436700 3.807500 -100.024566 6.770940 40.727023 28.642960 -40.352317 -7.585674 -0.479253 2.000140 -5.449033 -7.125000 0.000000 0.000000 91.228272 -8.228983 25.244431 -23.515238 33.917151 -6.661220 0.334990 -0.983082 14.242336 7.125000 0.000000 0.000000 
-14.430734 17.920167 -37.071030 -1.825862 -1.732004 11.691900 -13.582210 -9.499445 -20.298000 2.525891 10.887661 32.135025 1.169028 13.498290 -31.929959 0.298500 3.513100 9.710600 22.219884 8.472499 -19.314469 -3.532925 -11.050575 33.177079 -1.476079 -12.802422 -31.275004 -0.002600 0.328100 -0.901600 1.651600 5.498791 -5.200964 6.559121 2.615612 3.510702 4.783438 -5.234750 8.022608 0.721500 -2.427000 3.710400 -99.987036 6.873983 40.704366 28.700816 -40.400489 -7.614941 -0.484380 2.003702 -5.470067 -7.125000 0.000000 0.000000 91.517103 -8.976947 24.933692 -23.919773 34.342672 -6.862501 0.347685 -0.989827 14.616152 7.125000 0.000000 0.000000 
-14.434108 17.919323 -37.073982 -1.753276 -1.617675 11.755576 -13.628383 -9.311893 -20.482398 2.529441 10.895606 32.150655 1.212792 13.178447 -31.870444 0.294400 3.488900 9.642900 22.166845 8.307072 -19.456580 -3.527049 -11.041105 33.148115 -1.462659 -12.832797 -31.211470 -0.005200 0.463900 -1.274700 1.681989 5.430504 -5.253326 6.713953 2.588500 3.412724 4.737213 -5.213319 7.977300 0.718100 -2.421000 3.662600 -100.079804 6.946637 40.669591 28.702441 -40.409857 -7.617831 -0.486209 2.010004 -5.492299 -7.125000 0.000000 0.000000 91.081583 -8.959433 25.596502 -23.733404 34.097726 -6.760336 0.342170 -0.987775 13.893819 7.125000 0.000000 0.000000 
-14.438748 17.919745 -37.079465 -1.773894 -1.493692 11.835631 -13.555764 -9.123595 -20.697808 2.531416 10.904450 32.164005 1.258255 12.830455 -31.804485 0.288700 3.455400 9.549200 22.211824 8.370056 -19.494588 -3.519985 -11.026632 33.110068 -1.484252 -12.909221 -31.415601 -0.007900 0.572900 -1.574300 1.721078 5.360762 -5.313415 6.789735 2.562334 3.292464 4.673992 -5.207820 7.975685 0.694500 -2.421700 3.642900 -100.141641 7.017904 40.606981 28.704180 -40.414137 -7.619326 -0.478804 2.008988 -5.458649 -7.125000 0.000000 0.000000 91.049525 -8.625430 25.688515 -23.334364 33.666913 -6.560634 0.328620 -0.983565 13.819957 7.125000 0.000000 0.000000 
-14.442438 17.919534 -37.083261 -1.744230 -1.386505 11.893616 -13.557126 -8.874713 -20.899159 2.533616 10.913345 32.176319 1.303293 12.471917 -31.727526 0.292100 3.475300 9.605100 22.199086 8.409721 -19.512049 -3.513899 -11.014928 33.079045 -1.500416 -12.976991 -31.576182 -0.009600 0.633200 -1.740100 1.772148 5.291396 -5.362488 6.944806 2.535131 3.192183 4.694561 -5.158128 7.897554 0.722800 -2.400400 3.572200 -100.263596 7.096771 40.541045 28.705508 -40.425980 -7.620021 -0.479741 2.013589 -5.409996 -7.125000 0.000000 0.000000 90.864751 -8.115368 25.927303 -22.868782 33.152348 -6.330503 0.313101 -0.977660 13.587309 7.125000 0.000000 0.000000 
-14.446023 17.919850 -37.086846 -1.737803 -1.278465 11.948946 -13.543762 -8.593216 -21.106807 2.535958 10.922607 32.189149 1.340303 12.126335 -31.622974 0.274600 3.370600 9.312300 22.208635 8.585947 -19.459219 -3.507258 -11.002717 33.047366 -1.475606 -13.231542 -31.637420 -0.011900 0.703700 -1.933800 1.801961 5.229336 -5.433554 7.018375 2.516458 3.040120 4.630017 -5.129800 7.860769 0.702200 -2.390700 3.523100 -100.319261 7.239858 40.437790 28.752244 -40.464116 -7.636951 -0.479826 2.007970 -5.320450 -7.125000 0.000000 0.000000 90.836648 -8.264703 25.965397 -22.899479 33.172100 -6.343446 0.314290 -0.978719 13.586389 7.125000 0.000000 0.000000 
